<?xml version="1.0" encoding="UTF-8"?>
<svg xmlns="http://www.w3.org/2000/svg" xmlns:xlink="http://www.w3.org/1999/xlink" viewBox="0 0 192 192" width="192px" height="192px">
<g id="surface120200590">
<path style=" stroke:none;fill-rule:nonzero;fill:rgb(0%,0%,0%);fill-opacity:1;" d="M 30.667969 12 C 20.363281 12 12 20.351562 12 30.667969 L 12 161.332031 C 12 171.648438 20.363281 180 30.667969 180 L 161.332031 180 C 171.636719 180 180 171.648438 180 161.332031 L 180 30.667969 C 180 20.351562 171.636719 12 161.332031 12 Z M 30.667969 30.667969 L 161.332031 30.667969 L 161.332031 161.332031 L 30.667969 161.332031 Z M 49.332031 58.667969 L 49.332031 133.332031 L 64.957031 133.332031 L 64.957031 106.410156 L 75.363281 106.410156 C 86.660156 106.410156 98.816406 100.34375 98.824219 82.984375 C 98.824219 78.644531 96.21875 58.667969 74.507812 58.667969 Z M 64.957031 70.824219 L 75.363281 70.824219 C 81.449219 70.824219 84.070312 76.898438 84.058594 82.984375 C 84.058594 89.0625 82.308594 94.269531 75.363281 94.269531 L 64.957031 94.269531 Z M 137.015625 76.238281 C 131.183594 76.238281 128.066406 81.363281 126.898438 83.730469 L 126.460938 77.332031 L 111.859375 77.332031 L 111.859375 133.332031 L 127.390625 133.332031 L 127.390625 97.402344 C 128.121094 95.574219 130.03125 91.824219 135.976562 91.824219 C 136.707031 91.824219 140.445312 92.1875 141.136719 92.261719 L 141.28125 76.949219 C 140.769531 76.734375 139.574219 76.238281 137.015625 76.238281 Z M 137.015625 76.238281 "/>
</g>
</svg>
