<?xml version="1.0" encoding="UTF-8"?>
<svg xmlns="http://www.w3.org/2000/svg" xmlns:xlink="http://www.w3.org/1999/xlink" viewBox="0 0 250 250" width="250px" height="250px">
<g id="surface120170041">
<path style=" stroke:none;fill-rule:evenodd;fill:rgb(0%,0%,0%);fill-opacity:1;" d="M 209 215 L 125 239 L 41 215 L 23 11 L 227 11 C 221 78.992188 215 147.007812 209 215 Z M 213.898438 23 L 36.101562 23 L 52.226562 205.71875 L 125 226.53125 L 197.773438 205.71875 Z M 75.804688 143 L 99.804688 143 L 100.390625 158 L 125 166.390625 L 149.609375 158 L 151.390625 131 L 98.609375 131 L 97.390625 107 L 152.609375 107 L 154.390625 83 L 71.609375 83 L 69.804688 59 L 179.609375 59 L 176.609375 107 L 172.390625 176 L 125 191.609375 L 77.609375 176 Z M 75.804688 143 "/>
</g>
</svg>
