<?xml version="1.0" encoding="UTF-8"?>
<svg xmlns="http://www.w3.org/2000/svg" xmlns:xlink="http://www.w3.org/1999/xlink" viewBox="0 0 256 256" width="256px" height="256px">
<g id="surface120182194">
<path style=" stroke:none;fill-rule:nonzero;fill:rgb(0%,0%,0%);fill-opacity:1;" d="M 12.5 12.5 L 12.5 243.5 L 243.5 243.5 L 243.5 12.5 Z M 33.5 33.5 L 222.5 33.5 L 222.5 222.5 L 33.5 222.5 Z M 65 75.5 L 65 180.5 L 86 180.5 L 86 138.5 L 96.5 138.5 C 113.765625 138.5 128 124.265625 128 107 C 128 89.734375 113.765625 75.5 96.5 75.5 Z M 86 96.5 L 96.5 96.5 C 102.449219 96.5 107 101.050781 107 107 C 107 112.949219 102.449219 117.5 96.5 117.5 L 86 117.5 Z M 164.75 96.5 C 150.394531 96.5 138.5 108.394531 138.5 122.75 C 138.5 137.105469 150.394531 149 164.75 149 C 167.746094 149 170 151.253906 170 154.25 C 170 158.0625 169.34375 159.5 164.75 159.5 C 160.769531 159.5 160.199219 158.597656 160.15625 158.515625 C 160.113281 158.433594 159.5 158.105469 159.5 155.5625 L 138.5 155.5625 C 138.5 161.511719 140.140625 168.234375 145.0625 173.28125 C 149.984375 178.328125 157.121094 180.5 164.75 180.5 C 179.558594 180.5 191 167.828125 191 154.25 C 191 139.894531 179.105469 128 164.75 128 C 161.753906 128 159.5 125.746094 159.5 122.75 C 159.5 119.753906 161.753906 117.5 164.75 117.5 C 167.578125 117.5 168.359375 118.113281 169.015625 118.8125 C 169.671875 119.511719 170 120.863281 170 121.765625 L 191 121.765625 C 191 115.816406 188.949219 109.667969 184.4375 104.703125 C 179.925781 99.738281 172.707031 96.5 164.75 96.5 Z M 164.75 96.5 "/>
</g>
</svg>
