<?xml version="1.0" encoding="UTF-8"?>
<svg xmlns="http://www.w3.org/2000/svg" xmlns:xlink="http://www.w3.org/1999/xlink" viewBox="0 0 250 250" width="250px" height="250px">
<g id="surface120363155">
<path style=" stroke:none;fill-rule:nonzero;fill:rgb(0%,0%,0%);fill-opacity:1;" d="M 22.398438 11.601562 C 16.496094 11.601562 11.601562 16.496094 11.601562 22.398438 L 11.601562 227.601562 C 11.601562 233.503906 16.496094 238.398438 22.398438 238.398438 L 227.601562 238.398438 C 233.503906 238.398438 238.398438 233.503906 238.398438 227.601562 L 238.398438 22.398438 C 238.398438 16.496094 233.503906 11.601562 227.601562 11.601562 Z M 22.398438 22.398438 L 227.601562 22.398438 L 227.601562 227.601562 L 22.398438 227.601562 Z M 86.808594 65.601562 L 60.199219 184.398438 L 73.152344 184.398438 L 80.851562 149.660156 L 106.773438 149.660156 L 114.285156 184.398438 L 127.414062 184.398438 L 101.5 65.601562 Z M 93.824219 78.773438 L 94.339844 78.773438 C 95.722656 87.414062 97.285156 97.089844 99.011719 105.382812 L 105.140625 135.808594 L 83.035156 135.800781 L 88.980469 105.5625 C 90.710938 97.609375 92.4375 87.585938 93.824219 78.773438 Z M 165.625 98 C 158.363281 98 152.308594 100.636719 148.023438 104.507812 C 143.738281 108.378906 141.109375 113.269531 139.394531 117.914062 C 135.980469 127.167969 136.050781 136.035156 136.054688 136.09375 C 135.960938 136.902344 134.804688 147.511719 138.058594 159.046875 C 139.746094 165.035156 142.6875 171.339844 147.960938 176.257812 C 153.234375 181.175781 160.855469 184.398438 170.457031 184.398438 C 181.871094 184.398438 192.152344 179.179688 192.152344 179.179688 L 187.4375 169.453125 C 187.4375 169.453125 178.386719 173.601562 170.457031 173.601562 C 163.132812 173.601562 158.660156 171.472656 155.320312 168.359375 C 151.984375 165.246094 149.789062 160.835938 148.457031 156.113281 C 146.832031 150.359375 146.625 145.308594 146.671875 141.558594 L 195.199219 141.558594 L 195.199219 136.160156 C 195.199219 136.160156 195.273438 127.199219 191.847656 117.914062 C 190.132812 113.269531 187.503906 108.378906 183.21875 104.507812 C 178.933594 100.636719 172.890625 98 165.625 98 Z M 165.625 108.800781 C 170.449219 108.800781 173.46875 110.253906 175.984375 112.523438 C 178.496094 114.792969 180.402344 118.097656 181.710938 121.644531 C 183.355469 126.101562 183.148438 127.964844 183.398438 130.757812 L 147.84375 130.757812 C 148.09375 127.964844 147.886719 126.101562 149.53125 121.644531 C 150.839844 118.097656 152.746094 114.792969 155.257812 112.523438 C 157.773438 110.25 160.800781 108.800781 165.625 108.800781 Z M 165.625 108.800781 "/>
</g>
</svg>
